<?xml version="1.0" encoding="iso-8859-1"?>
<!-- Generator: Adobe Illustrator 16.0.0, SVG Export Plug-In . SVG Version: 6.00 Build 0)  -->
<!DOCTYPE svg PUBLIC "-//W3C//DTD SVG 1.1//EN" "http://www.w3.org/Graphics/SVG/1.1/DTD/svg11.dtd">
<svg version="1.1" id="Capa_1" xmlns="http://www.w3.org/2000/svg" xmlns:xlink="http://www.w3.org/1999/xlink" x="0px" y="0px"
	 width="537.871px" height="537.871px" viewBox="0 0 537.871 537.871" style="enable-background:new 0 0 537.871 537.871;"
	 xml:space="preserve">
<g>
	<path d="M426.985,0H110.734C98.876,0,89.237,9.562,89.237,21.497v494.878c0,11.857,9.716,21.496,21.497,21.496h316.404
		c11.857,0,21.496-9.562,21.496-21.496V21.573C448.558,9.716,438.995,0,426.985,0z M125.116,44.523c0-4.819,3.825-8.645,8.568-8.645
		h269.051c4.818,0,8.645,3.825,8.645,8.645v126.378c0,4.82-3.826,8.645-8.645,8.645H133.684c-4.819,0-8.568-3.825-8.568-8.645
		V44.523z M411.685,223.763v54.468c0,4.82-3.824,8.645-8.645,8.645h-54.467c-4.82,0-8.645-3.824-8.645-8.645v-54.544
		c0-4.819,3.824-8.645,8.645-8.645h54.467C407.86,215.195,411.685,219.02,411.685,223.763z M196.796,493.426
		c0,4.818-3.825,8.645-8.645,8.645h-54.544c-4.819,0-8.568-3.826-8.568-8.645v-54.545c0-4.82,3.825-8.645,8.568-8.645h54.544
		c4.82,0,8.645,3.824,8.645,8.645V493.426z M196.796,385.865c0,4.82-3.825,8.645-8.645,8.645h-54.544
		c-4.819,0-8.568-3.824-8.568-8.645v-54.543c0-4.82,3.825-8.645,8.568-8.645h54.544c4.82,0,8.645,3.824,8.645,8.645V385.865z
		 M196.796,278.307c0,4.82-3.825,8.645-8.645,8.645h-54.544c-4.819,0-8.568-3.824-8.568-8.645v-54.544
		c0-4.819,3.825-8.645,8.568-8.645h54.544c4.82,0,8.645,3.825,8.645,8.645V278.307z M304.356,493.426
		c0,4.818-3.826,8.645-8.645,8.645h-54.545c-4.819,0-8.645-3.826-8.645-8.645v-54.545c0-4.82,3.825-8.645,8.645-8.645h54.545
		c4.818,0,8.645,3.824,8.645,8.645V493.426z M304.356,385.865c0,4.82-3.826,8.645-8.645,8.645h-54.545
		c-4.819,0-8.645-3.824-8.645-8.645v-54.543c0-4.82,3.825-8.645,8.645-8.645h54.545c4.818,0,8.645,3.824,8.645,8.645V385.865z
		 M304.356,278.307c0,4.82-3.826,8.645-8.645,8.645h-54.545c-4.819,0-8.645-3.824-8.645-8.645v-54.544
		c0-4.819,3.825-8.645,8.645-8.645h54.545c4.818,0,8.645,3.825,8.645,8.645V278.307z M340.005,331.398
		c0-4.82,3.824-8.645,8.645-8.645h54.545c4.818,0,8.645,3.824,8.645,8.645v54.467c0,4.82-3.826,8.645-8.645,8.645h-54.545
		c-4.82,0-8.645-3.824-8.645-8.645V331.398L340.005,331.398z M411.991,493.426c0,4.818-3.824,8.645-8.645,8.645h-54.545
		c-4.818,0-8.645-3.826-8.645-8.645v-54.545c0-4.82,3.826-8.645,8.645-8.645h54.545c4.82,0,8.645,3.824,8.645,8.645V493.426z"/>
</g>
<g>
</g>
<g>
</g>
<g>
</g>
<g>
</g>
<g>
</g>
<g>
</g>
<g>
</g>
<g>
</g>
<g>
</g>
<g>
</g>
<g>
</g>
<g>
</g>
<g>
</g>
<g>
</g>
<g>
</g>
</svg>
