<?xml version="1.0" encoding="iso-8859-1"?>
<!-- Generator: Adobe Illustrator 16.0.0, SVG Export Plug-In . SVG Version: 6.00 Build 0)  -->
<!DOCTYPE svg PUBLIC "-//W3C//DTD SVG 1.1//EN" "http://www.w3.org/Graphics/SVG/1.1/DTD/svg11.dtd">
<svg version="1.1" id="Capa_1" xmlns="http://www.w3.org/2000/svg" xmlns:xlink="http://www.w3.org/1999/xlink" x="0px" y="0px"
	 width="49px" height="49px" viewBox="0 0 49 49" style="enable-background:new 0 0 49 49;" xml:space="preserve">
<g>
	<path d="M27.926,7.052c0.583-0.743,0.945-1.666,0.945-2.682c0-2.41-1.96-4.37-4.371-4.37c-2.41,0-4.371,1.96-4.371,4.371
		c0,1.016,0.362,1.938,0.945,2.682c-10.034,1.64-17.7,10.325-17.7,20.823C3.375,39.543,12.833,49,24.5,49
		s21.125-9.457,21.125-21.125C45.625,17.378,37.959,8.692,27.926,7.052z M24.5,2.33c1.125,0,2.04,0.915,2.04,2.04
		s-0.915,2.04-2.04,2.04s-2.04-0.915-2.04-2.04S23.375,2.33,24.5,2.33z M24.501,47.396h-0.162
		c-10.763-0.088-19.449-8.918-19.36-19.684C5.066,17.038,13.821,8.351,24.499,8.351l0.163,0.001
		c10.762,0.089,19.449,8.918,19.361,19.683C43.933,38.711,35.179,47.396,24.501,47.396z M24.65,9.518l-0.153-0.001
		c-10.037,0-18.271,8.168-18.354,18.208C6.062,37.848,14.229,46.15,24.35,46.23h0.152c10.038,0,18.271-8.166,18.354-18.205
		C42.937,17.903,34.771,9.6,24.65,9.518z M22.774,11.882h1.197l0.967,1.886c0.085,0.168,0.185,0.369,0.297,0.608l0.143,0.302
		l0.143,0.306h0.024l-0.009-0.24l-0.01-0.24l-0.006-0.478v-2.143h0.705v3.72H25.03l-1.063-2.041
		c-0.052-0.103-0.135-0.28-0.248-0.535l-0.12-0.268l-0.118-0.267h-0.027l0.01,0.246l0.008,0.242l0.005,0.487v2.134h-0.705
		L22.774,11.882L22.774,11.882z M13,29.734h-1.044l-0.518-1.909c-0.046-0.171-0.103-0.404-0.167-0.693l-0.051-0.227h-0.024
		l-0.055,0.231l-0.051,0.227c-0.039,0.154-0.08,0.312-0.123,0.464l-0.531,1.903H9.404l-0.964-3.72H9.16l0.537,2.042
		c0.033,0.131,0.073,0.313,0.123,0.543l0.057,0.271l0.055,0.271h0.024c0.029-0.121,0.051-0.212,0.067-0.271l0.064-0.27
		c0.036-0.142,0.083-0.322,0.145-0.543l0.572-2.045h0.829l0.558,2.045c0.047,0.176,0.094,0.355,0.139,0.543l0.063,0.27l0.065,0.271
		h0.022l0.06-0.271l0.058-0.271c0.048-0.219,0.089-0.402,0.128-0.546l0.55-2.039h0.722L13,29.734z M25.781,43.443h-2.56v-3.719
		h2.544v0.596h-1.839v0.957h1.744v0.521h-1.744v1.054h1.854V43.443L25.781,43.443z M26.702,29.336l-10.126,10.48l5.729-13.403
		l10.125-10.478L26.702,29.336z M39.015,29.77c-0.586,0-0.975-0.072-1.166-0.215c-0.191-0.141-0.287-0.428-0.287-0.859l-0.002-0.137
		h0.687l0.002,0.08c0,0.258,0.046,0.416,0.137,0.476c0.091,0.059,0.339,0.086,0.744,0.086c0.315,0,0.519-0.031,0.604-0.101
		c0.086-0.068,0.131-0.224,0.131-0.467c0-0.178-0.031-0.298-0.098-0.357c-0.067-0.062-0.211-0.096-0.432-0.108l-0.389-0.022
		c-0.59-0.033-0.965-0.117-1.129-0.246s-0.246-0.406-0.246-0.832c0-0.435,0.099-0.724,0.296-0.866
		c0.198-0.146,0.592-0.22,1.182-0.22c0.56,0,0.938,0.068,1.134,0.199c0.194,0.133,0.291,0.393,0.291,0.776v0.142h-0.691
		c-0.004-0.033-0.008-0.062-0.008-0.074c-0.016-0.211-0.062-0.342-0.139-0.394c-0.074-0.057-0.255-0.082-0.539-0.082
		c-0.332,0-0.553,0.031-0.656,0.093c-0.103,0.063-0.152,0.191-0.152,0.391c0,0.234,0.042,0.375,0.124,0.423
		c0.083,0.048,0.36,0.083,0.829,0.108c0.555,0.028,0.912,0.11,1.076,0.237c0.162,0.126,0.244,0.392,0.244,0.792
		c0,0.495-0.097,0.814-0.287,0.958C40.084,29.695,39.667,29.77,39.015,29.77z"/>
</g>
<g>
</g>
<g>
</g>
<g>
</g>
<g>
</g>
<g>
</g>
<g>
</g>
<g>
</g>
<g>
</g>
<g>
</g>
<g>
</g>
<g>
</g>
<g>
</g>
<g>
</g>
<g>
</g>
<g>
</g>
</svg>
