<?xml version="1.0" encoding="iso-8859-1"?>
<!-- Generator: Adobe Illustrator 16.0.0, SVG Export Plug-In . SVG Version: 6.00 Build 0)  -->
<!DOCTYPE svg PUBLIC "-//W3C//DTD SVG 1.1//EN" "http://www.w3.org/Graphics/SVG/1.1/DTD/svg11.dtd">
<svg version="1.1" id="Capa_1" xmlns="http://www.w3.org/2000/svg" xmlns:xlink="http://www.w3.org/1999/xlink" x="0px" y="0px"
	 width="585.226px" height="585.226px" viewBox="0 0 585.226 585.226" style="enable-background:new 0 0 585.226 585.226;"
	 xml:space="preserve">
<g>
	<g id="Layer_1_34_">
		<path d="M470.472,265.2l-12.75-117.3C447.522,62.475,377.397,0,291.972,0l0,0c-84.15,0-155.55,63.75-164.475,147.9l-12.75,117.3
			c-1.275,7.65,1.275,15.3,7.65,21.675s12.75,8.925,21.675,8.925h116.025v225.676h-38.25c-17.85,0-31.875,14.024-31.875,31.875
			c0,17.85,14.025,31.875,31.875,31.875h140.25c17.85,0,31.875-14.025,31.875-31.875c0-17.851-14.025-31.875-31.875-31.875h-38.25
			V295.8h30.6v85.426c0,10.199,8.926,19.125,19.125,19.125c10.2,0,19.125-8.926,19.125-19.125V295.8h49.726
			c7.649,0,15.3-3.824,21.675-8.925C469.197,280.5,471.748,272.85,470.472,265.2z"/>
	</g>
</g>
<g>
</g>
<g>
</g>
<g>
</g>
<g>
</g>
<g>
</g>
<g>
</g>
<g>
</g>
<g>
</g>
<g>
</g>
<g>
</g>
<g>
</g>
<g>
</g>
<g>
</g>
<g>
</g>
<g>
</g>
</svg>
