<?xml version="1.0" encoding="iso-8859-1"?>
<!-- Generator: Adobe Illustrator 16.0.0, SVG Export Plug-In . SVG Version: 6.00 Build 0)  -->
<!DOCTYPE svg PUBLIC "-//W3C//DTD SVG 1.1//EN" "http://www.w3.org/Graphics/SVG/1.1/DTD/svg11.dtd">
<svg version="1.1" id="Capa_1" xmlns="http://www.w3.org/2000/svg" xmlns:xlink="http://www.w3.org/1999/xlink" x="0px" y="0px"
	 width="44.891px" height="44.891px" viewBox="0 0 44.891 44.891" style="enable-background:new 0 0 44.891 44.891;"
	 xml:space="preserve">
<g>
	<g>
		<path d="M39.373,6.837h-2.76V6.081c0-3.34-2.762-6.081-6.101-6.081h-4.358c-3.338,0-6.09,2.741-6.09,6.081v0.756h-2.77
			c-2.999,0-5.454,2.399-5.454,5.398v16.268c0,2.999,2.455,5.388,5.454,5.388h22.079c2.998,0,5.465-2.389,5.465-5.388V12.236
			C44.839,9.237,42.373,6.837,39.373,6.837z M32.65,6.837h-8.722V6.081c0-1.202,1.024-2.216,2.228-2.216h4.357
			c1.201,0,2.137,1.014,2.137,2.216V6.837z"/>
		<path d="M42.074,37.359H17.322c-4.847,0-8.751-3.979-8.751-8.827V6.563c0-2.269-1.887-4.085-4.156-4.085h-1.94
			c-1.338,0-2.422,1.09-2.422,2.428c0,1.338,1.084,2.429,2.422,2.429h1.24v21.197c0,7.215,5.62,13.138,12.719,13.604
			c0.455,1.563,1.89,2.729,3.602,2.729c1.7,0,3.128-1.165,3.594-2.651h8.299c0.465,1.486,1.899,2.676,3.601,2.676
			s3.135-1.188,3.601-2.676h2.944c1.338,0,2.422-1.091,2.422-2.429C44.494,38.45,43.41,37.359,42.074,37.359z"/>
	</g>
</g>
<g>
</g>
<g>
</g>
<g>
</g>
<g>
</g>
<g>
</g>
<g>
</g>
<g>
</g>
<g>
</g>
<g>
</g>
<g>
</g>
<g>
</g>
<g>
</g>
<g>
</g>
<g>
</g>
<g>
</g>
</svg>
