<?xml version="1.0" encoding="iso-8859-1"?>
<!-- Generator: Adobe Illustrator 16.0.0, SVG Export Plug-In . SVG Version: 6.00 Build 0)  -->
<!DOCTYPE svg PUBLIC "-//W3C//DTD SVG 1.1//EN" "http://www.w3.org/Graphics/SVG/1.1/DTD/svg11.dtd">
<svg version="1.1" id="Capa_1" xmlns="http://www.w3.org/2000/svg" xmlns:xlink="http://www.w3.org/1999/xlink" x="0px" y="0px"
	 width="45.787px" height="45.787px" viewBox="0 0 45.787 45.787" style="enable-background:new 0 0 45.787 45.787;"
	 xml:space="preserve">
<g>
	<g>
		<path d="M22.894,25.324c1.375,0,2.493-1.114,2.493-2.488V18.37l3.831,3.353c0.035,0.031,0.073,0.059,0.109,0.087v6.999
			c0,1.375,1.116,2.487,2.491,2.487s2.492-1.112,2.492-2.487V16.298c0-2.981,2.455-5.401,5.437-5.401h2.558
			c1.373,0,2.487-1.118,2.487-2.493c0-1.374-1.114-2.492-2.487-2.492h-2.558c-5.372,0-9.837,4.104-10.367,9.339l-3.993-3.495v-1.43
			c0-2.981,2.42-5.457,5.401-5.457h2.558c1.375,0,2.488-1.06,2.488-2.434C35.834,1.06,34.721,0,33.346,0h-2.558
			c-5.726,0-10.387,4.6-10.387,10.325v12.511C20.401,24.21,21.519,25.324,22.894,25.324z"/>
		<path d="M2.488,31.762H19.41c1.374,0,2.488-1.117,2.488-2.492s-1.114-2.492-2.488-2.492H2.488C1.113,26.775,0,27.895,0,29.27
			S1.113,31.762,2.488,31.762z"/>
		<path d="M2.488,38.716h40.811c1.375,0,2.488-1.116,2.488-2.491s-1.113-2.492-2.488-2.492H2.488C1.113,33.732,0,34.85,0,36.225
			S1.113,38.716,2.488,38.716z"/>
		<path d="M43.299,40.803H2.488C1.113,40.803,0,41.92,0,43.295s1.113,2.492,2.488,2.492h40.811c1.375,0,2.488-1.117,2.488-2.492
			S44.674,40.803,43.299,40.803z"/>
	</g>
</g>
<g>
</g>
<g>
</g>
<g>
</g>
<g>
</g>
<g>
</g>
<g>
</g>
<g>
</g>
<g>
</g>
<g>
</g>
<g>
</g>
<g>
</g>
<g>
</g>
<g>
</g>
<g>
</g>
<g>
</g>
</svg>
