<?xml version="1.0" encoding="iso-8859-1"?>
<!-- Generator: Adobe Illustrator 16.0.0, SVG Export Plug-In . SVG Version: 6.00 Build 0)  -->
<!DOCTYPE svg PUBLIC "-//W3C//DTD SVG 1.1//EN" "http://www.w3.org/Graphics/SVG/1.1/DTD/svg11.dtd">
<svg version="1.1" id="Capa_1" xmlns="http://www.w3.org/2000/svg" xmlns:xlink="http://www.w3.org/1999/xlink" x="0px" y="0px"
	 width="539.941px" height="539.941px" viewBox="0 0 539.941 539.941" style="enable-background:new 0 0 539.941 539.941;"
	 xml:space="preserve">
<g>
	<path d="M523.798,450.609L252.299,199.69c28.229-51.179,20.655-116.815-22.72-160.191c-31.671-31.671-75.2-44.217-116.28-37.791
		c-1.071,0.153-3.213,1.759-3.442,3.442c-0.153,1.3,1.454,2.601,2.142,3.442c27.234,27.234,81.855,81.855,81.855,81.855
		c4.208,4.208,6.35,12.316,4.819,18.054l-15.988,59.747c-0.842,3.136-2.983,6.349-5.584,8.874c-2.524,2.754-5.584,4.819-8.874,5.584
		l-59.747,15.988c-5.737,1.53-13.847-0.612-18.054-4.819c0,0-54.621-54.621-81.855-81.855c-0.688-0.688-2.142-2.295-3.442-2.142
		c-1.683,0.229-3.366,2.372-3.442,3.442c-6.579,41.157,6.12,84.609,37.791,116.28c43.375,43.375,109.012,50.948,160.191,22.72
		l250.997,271.345c19.354,21.037,51.484,21.649,71.757,1.453l2.831-2.906C545.447,502.094,544.683,470.04,523.798,450.609z
		 M504.673,504.694c-10.48,10.558-27.463,10.558-38.021,0c-10.557-10.557-10.557-27.463,0-38.02
		c10.48-10.481,27.464-10.481,38.021,0C515.153,477.231,515.153,494.214,504.673,504.694z"/>
</g>
<g>
</g>
<g>
</g>
<g>
</g>
<g>
</g>
<g>
</g>
<g>
</g>
<g>
</g>
<g>
</g>
<g>
</g>
<g>
</g>
<g>
</g>
<g>
</g>
<g>
</g>
<g>
</g>
<g>
</g>
</svg>
