<?xml version="1.0" encoding="iso-8859-1"?>
<!-- Generator: Adobe Illustrator 16.0.0, SVG Export Plug-In . SVG Version: 6.00 Build 0)  -->
<!DOCTYPE svg PUBLIC "-//W3C//DTD SVG 1.1//EN" "http://www.w3.org/Graphics/SVG/1.1/DTD/svg11.dtd">
<svg version="1.1" id="Capa_1" xmlns="http://www.w3.org/2000/svg" xmlns:xlink="http://www.w3.org/1999/xlink" x="0px" y="0px"
	 width="537.891px" height="537.891px" viewBox="0 0 537.891 537.891" style="enable-background:new 0 0 537.891 537.891;"
	 xml:space="preserve">
<g>
	<g>
		<path d="M268.945,0C120.368,0,0,120.368,0,268.945s120.368,268.945,268.945,268.945s268.945-120.368,268.945-268.945
			S417.522,0,268.945,0z M269.185,461.032c-105.905,0-191.848-85.943-191.848-191.848c0-105.905,85.943-191.848,191.848-191.848
			c105.904,0,191.848,85.943,191.848,191.848C461.032,375.089,375.209,461.032,269.185,461.032z"/>
		<path d="M367.559,251.016h-78.891v-78.891c0-14.822-12.072-26.895-26.895-26.895c-14.822,0-26.895,12.073-26.895,26.895V277.91
			c0,7.411,2.988,14.104,7.889,19.006l0,0c4.901,4.9,11.594,7.889,19.005,7.889h105.785c14.822,0,26.895-12.072,26.895-26.895
			C394.453,263.088,382.381,251.016,367.559,251.016z"/>
	</g>
</g>
<g>
</g>
<g>
</g>
<g>
</g>
<g>
</g>
<g>
</g>
<g>
</g>
<g>
</g>
<g>
</g>
<g>
</g>
<g>
</g>
<g>
</g>
<g>
</g>
<g>
</g>
<g>
</g>
<g>
</g>
</svg>
