<?xml version="1.0" encoding="iso-8859-1"?>
<!-- Generator: Adobe Illustrator 16.0.0, SVG Export Plug-In . SVG Version: 6.00 Build 0)  -->
<!DOCTYPE svg PUBLIC "-//W3C//DTD SVG 1.1//EN" "http://www.w3.org/Graphics/SVG/1.1/DTD/svg11.dtd">
<svg version="1.1" id="Capa_1" xmlns="http://www.w3.org/2000/svg" xmlns:xlink="http://www.w3.org/1999/xlink" x="0px" y="0px"
	 width="580.125px" height="580.125px" viewBox="0 0 580.125 580.125" style="enable-background:new 0 0 580.125 580.125;"
	 xml:space="preserve">
<g>
	<g id="Layer_1_125_">
		<path d="M444.975,7.659c0,0-248.625,0-257.55,0C130.05,6.385,84.15,70.135,73.95,160.659h-35.7c-20.4,0-38.25,16.575-38.25,36.976
			c0,20.399,16.575,36.975,38.25,36.975h35.7c10.2,89.25,54.825,154.275,109.65,158.101h81.6v118.575
			c0,34.425,28.05,61.199,62.475,61.199h189.975c34.426,0,62.476-28.05,62.476-61.199V141.534
			C580.125,67.585,518.925,7.659,444.975,7.659z M187.425,355.734c-31.875,0-66.3-47.175-75.225-119.85h51
			c20.4,0,38.25-16.575,38.25-36.976c0-20.399-16.575-36.975-38.25-36.975h-51c8.925-72.675,43.35-117.3,75.225-117.3
			c36.975,0,77.775,61.2,77.775,154.274C265.2,291.984,224.4,355.734,187.425,355.734z M541.875,512.56
			c0,12.75-10.2,24.226-24.226,24.226H327.675c-12.75,0-24.225-10.2-24.225-24.226c0,0,0-306,0-313.65
			c0-62.475-16.575-117.3-43.351-153h186.15c53.55,0,95.625,43.351,95.625,95.625V512.56L541.875,512.56z"/>
	</g>
</g>
<g>
</g>
<g>
</g>
<g>
</g>
<g>
</g>
<g>
</g>
<g>
</g>
<g>
</g>
<g>
</g>
<g>
</g>
<g>
</g>
<g>
</g>
<g>
</g>
<g>
</g>
<g>
</g>
<g>
</g>
</svg>
