<?xml version="1.0" encoding="iso-8859-1"?>
<!-- Generator: Adobe Illustrator 16.0.0, SVG Export Plug-In . SVG Version: 6.00 Build 0)  -->
<!DOCTYPE svg PUBLIC "-//W3C//DTD SVG 1.1//EN" "http://www.w3.org/Graphics/SVG/1.1/DTD/svg11.dtd">
<svg version="1.1" id="Capa_1" xmlns="http://www.w3.org/2000/svg" xmlns:xlink="http://www.w3.org/1999/xlink" x="0px" y="0px"
	 width="45.728px" height="45.727px" viewBox="0 0 45.728 45.727" style="enable-background:new 0 0 45.728 45.727;"
	 xml:space="preserve">
<g>
	<g>
		<path d="M22.868,20.068c-3.966,0-7.193,3.228-7.193,7.192c0,3.968,3.227,7.193,7.193,7.193c3.966,0,7.193-3.227,7.193-7.193
			S26.834,20.068,22.868,20.068z"/>
		<path d="M37.812,13.169h-3.914v-1.96c0-4.265-3.47-7.734-7.734-7.734h-6.602c-4.265,0-7.734,3.47-7.734,7.734v1.96H7.932
			C3.556,13.169,0,16.691,0,21.068v13.251c0,4.377,3.555,7.934,7.932,7.934h29.881c4.377,0,7.915-3.557,7.915-7.934V21.068
			C45.728,16.691,42.189,13.169,37.812,13.169z M16.706,11.209c0-1.575,1.281-2.856,2.856-2.856h6.602
			c1.576,0,2.857,1.281,2.857,2.856v1.96H16.706V11.209z M22.868,38.428c-6.158,0-11.167-5.01-11.167-11.168
			c0-6.157,5.009-11.167,11.167-11.167s11.167,5.009,11.167,11.167C34.035,33.418,29.025,38.428,22.868,38.428z"/>
	</g>
</g>
<g>
</g>
<g>
</g>
<g>
</g>
<g>
</g>
<g>
</g>
<g>
</g>
<g>
</g>
<g>
</g>
<g>
</g>
<g>
</g>
<g>
</g>
<g>
</g>
<g>
</g>
<g>
</g>
<g>
</g>
</svg>
