<?xml version="1.0" encoding="iso-8859-1"?>
<!-- Generator: Adobe Illustrator 16.0.0, SVG Export Plug-In . SVG Version: 6.00 Build 0)  -->
<!DOCTYPE svg PUBLIC "-//W3C//DTD SVG 1.1//EN" "http://www.w3.org/Graphics/SVG/1.1/DTD/svg11.dtd">
<svg version="1.1" id="Capa_1" xmlns="http://www.w3.org/2000/svg" xmlns:xlink="http://www.w3.org/1999/xlink" x="0px" y="0px"
	 width="569.713px" height="569.713px" viewBox="0 0 569.713 569.713" style="enable-background:new 0 0 569.713 569.713;"
	 xml:space="preserve">
<g>
	<g id="Layer_1_18_">
		<g>
			<path d="M123.675,352.432h376.125c17.85,0,31.875-14.025,31.875-31.875l0,0c0-102-68.852-187.425-163.201-212.925
				c1.275-5.1,1.275-10.2,1.275-15.3c0-33.15-26.775-58.65-58.65-58.65c-31.875,0-58.649,26.775-58.649,58.65
				c0,5.1,0,10.2,1.275,15.3c-94.35,25.5-163.2,110.925-163.2,212.925l0,0C91.8,338.406,105.825,352.432,123.675,352.432z
				 M312.375,70.656c11.475,0,21.676,10.2,21.676,21.675c0,2.55,0,5.1-1.275,7.65c-6.375,0-12.75-1.275-20.4-1.275
				c-6.375,0-14.025,0-20.4,1.275c-1.275-2.55-1.275-5.1-1.275-7.65C290.699,80.856,299.625,70.656,312.375,70.656z M135.15,247.881
				c12.75-38.25,38.25-68.85,72.675-89.25c8.925-5.1,20.4-2.55,25.5,6.375l0,0c2.55,3.825,3.825,10.2,1.275,14.025
				c-1.275,5.1-5.1,8.925-8.925,11.475c-25.5,15.3-45.9,38.25-54.825,67.575c-1.275,5.1-5.1,8.925-10.2,11.475
				c-5.1,2.55-10.2,2.55-15.3,1.275l0,0C136.425,267.006,131.325,256.807,135.15,247.881z"/>
			<path d="M543.15,377.932h-433.5c-25.5,0-47.175-21.675-47.175-47.175V37.506c0-17.85-14.025-30.6-30.6-30.6
				C15.3,6.906,0,19.656,0,37.506v293.25c0,59.925,49.725,109.649,109.65,109.649h15.3c-6.375,11.476-10.2,25.5-10.2,39.525
				c0,45.899,36.975,82.875,82.875,82.875s82.875-36.976,82.875-82.875c0-14.025-3.825-28.05-10.2-39.525h76.5
				c-6.375,11.476-10.201,25.5-10.201,39.525c0,45.899,36.975,82.875,82.875,82.875s82.875-36.976,82.875-82.875
				c0-14.025-3.824-28.05-10.199-39.525h45.9c17.85,0,30.6-14.024,30.6-30.6C573.75,391.956,559.725,377.932,543.15,377.932z
				 M197.625,513.081c-17.85,0-33.15-15.3-33.15-33.149c0-19.125,15.3-33.15,33.15-33.15s33.15,15.3,33.15,33.15
				C232.05,497.781,216.75,513.081,197.625,513.081z M422.025,513.081c-19.125,0-33.15-15.3-33.15-33.149
				c0-19.125,15.301-33.15,33.15-33.15s33.15,15.3,33.15,33.15C456.449,497.781,441.15,513.081,422.025,513.081z"/>
		</g>
	</g>
</g>
<g>
</g>
<g>
</g>
<g>
</g>
<g>
</g>
<g>
</g>
<g>
</g>
<g>
</g>
<g>
</g>
<g>
</g>
<g>
</g>
<g>
</g>
<g>
</g>
<g>
</g>
<g>
</g>
<g>
</g>
</svg>
