<?xml version="1.0" encoding="iso-8859-1"?>
<!-- Generator: Adobe Illustrator 16.0.0, SVG Export Plug-In . SVG Version: 6.00 Build 0)  -->
<!DOCTYPE svg PUBLIC "-//W3C//DTD SVG 1.1//EN" "http://www.w3.org/Graphics/SVG/1.1/DTD/svg11.dtd">
<svg version="1.1" id="Capa_1" xmlns="http://www.w3.org/2000/svg" xmlns:xlink="http://www.w3.org/1999/xlink" x="0px" y="0px"
	 width="49.001px" height="49px" viewBox="0 0 49.001 49" style="enable-background:new 0 0 49.001 49;" xml:space="preserve">
<g>
	<path d="M35.962,27.332l0.304-0.305l-2.748-3.97c-5.42,5.079-11.416,10.086-16.231,13.514l3.658,9.812L18.325,49l-4.678-10.012
		c-2.748,1.662-4.728,2.406-5.382,1.747c-0.659-0.656,0.086-2.639,1.747-5.383L0,30.673l2.618-2.618l9.809,3.66
		c3.427-4.819,8.435-10.815,13.514-16.232l-3.971-2.75l-0.303,0.303c-0.529,0.529-1.82,0.096-2.884-0.97
		c-0.801-0.8-1.245-1.73-1.19-2.366L9.269,3.934l7.154-2.617l6.944,2.315l2.105-2.107c0.526-0.529,1.819-0.094,2.879,0.972
		c1.066,1.063,1.502,2.354,0.973,2.883l-0.182,0.18l5.11,1.705c8.006-7.183,12.173-8.313,13.985-6.5
		c1.811,1.81,0.681,5.978-6.502,13.984l1.705,5.112l0.183-0.181c0.528-0.529,1.817-0.095,2.883,0.97
		c1.062,1.063,1.498,2.354,0.972,2.883L45.37,25.64l2.315,6.94l-2.617,7.155l-5.768-8.324c-0.636,0.056-1.562-0.387-2.367-1.188
		C35.868,29.15,35.434,27.86,35.962,27.332z"/>
</g>
<g>
</g>
<g>
</g>
<g>
</g>
<g>
</g>
<g>
</g>
<g>
</g>
<g>
</g>
<g>
</g>
<g>
</g>
<g>
</g>
<g>
</g>
<g>
</g>
<g>
</g>
<g>
</g>
<g>
</g>
</svg>
