<?xml version="1.0" encoding="iso-8859-1"?>
<!-- Generator: Adobe Illustrator 16.0.0, SVG Export Plug-In . SVG Version: 6.00 Build 0)  -->
<!DOCTYPE svg PUBLIC "-//W3C//DTD SVG 1.1//EN" "http://www.w3.org/Graphics/SVG/1.1/DTD/svg11.dtd">
<svg version="1.1" id="Capa_1" xmlns="http://www.w3.org/2000/svg" xmlns:xlink="http://www.w3.org/1999/xlink" x="0px" y="0px"
	 width="49px" height="49px" viewBox="0 0 49 49" style="enable-background:new 0 0 49 49;" xml:space="preserve">
<g>
	<path d="M39.532,18.11c-3.527-8.303-13.118-12.174-21.42-8.647C9.81,12.994,5.938,22.583,9.467,30.887
		c3.526,8.302,13.117,12.174,21.418,8.646C39.188,36.002,43.06,26.413,39.532,18.11z M21.877,12.615
		c-7.417,3.152-11.212,11.225-9.237,18.793c-0.286-0.493-0.552-0.999-0.782-1.538c-2.969-6.982,0.286-15.047,7.27-18.014
		c3.08-1.309,6.37-1.403,9.341-0.505C26.271,11.307,24.03,11.7,21.877,12.615z M48.999,24.881c0.002-0.096-0.003-0.191-0.006-0.289
		c-1.146-0.576-2.452-1.985-3.651-3.923c0.433-2.237,1.153-4.019,2.02-4.967c-0.033-0.09-0.062-0.18-0.1-0.27
		c-1.319-0.108-3.133-0.981-5.034-2.408c-0.521-2.316-0.577-4.324-0.138-5.574c-0.068-0.067-0.129-0.14-0.196-0.208
		c-1.221,0.404-3.144,0.333-5.364-0.189c-1.273-1.891-2.026-3.663-2.083-4.945c-0.088-0.041-0.176-0.073-0.266-0.112
		c-1.011,0.856-2.906,1.517-5.259,1.853c-2.01-1.272-3.471-2.653-4.042-3.848c-0.096-0.003-0.19,0.001-0.289,0.001
		c-0.576,1.147-1.987,2.453-3.922,3.653c-2.236-0.432-4.018-1.153-4.966-2.021c-0.089,0.034-0.182,0.064-0.27,0.101
		c-0.106,1.321-0.981,3.131-2.41,5.035C10.708,7.292,8.703,7.35,7.453,6.91C7.383,6.974,7.311,7.039,7.245,7.107
		c0.405,1.219,0.331,3.141-0.19,5.362c-1.891,1.277-3.661,2.028-4.945,2.083c-0.039,0.089-0.072,0.179-0.114,0.266
		c0.856,1.011,1.519,2.908,1.855,5.259c-1.273,2.01-2.653,3.47-3.85,4.04c-0.002,0.097,0.003,0.192,0.001,0.289
		c1.147,0.578,2.454,1.986,3.655,3.922c-0.433,2.236-1.153,4.019-2.022,4.965c0.039,0.093,0.068,0.184,0.102,0.271
		c1.321,0.107,3.133,0.979,5.034,2.407c0.522,2.316,0.579,4.325,0.136,5.574c0.072,0.07,0.133,0.144,0.2,0.209
		c1.222-0.404,3.146-0.335,5.362,0.188c1.277,1.892,2.031,3.664,2.084,4.946c0.086,0.041,0.176,0.072,0.264,0.11
		c1.011-0.854,2.907-1.515,5.26-1.851c2.009,1.271,3.471,2.651,4.041,3.848c0.096,0.003,0.191-0.002,0.288-0.002
		c0.577-1.146,1.989-2.453,3.922-3.653c2.236,0.434,4.02,1.153,4.969,2.021c0.089-0.034,0.18-0.062,0.267-0.1
		c0.11-1.32,0.984-3.132,2.411-5.034c2.317-0.521,4.325-0.578,5.574-0.14c0.067-0.064,0.137-0.126,0.207-0.196
		c-0.408-1.22-0.334-3.141,0.188-5.36c1.893-1.276,3.664-2.03,4.947-2.084c0.039-0.087,0.072-0.175,0.11-0.267
		c-0.855-1.01-1.517-2.906-1.852-5.259C46.419,26.909,47.801,25.449,48.999,24.881z M42.103,27.119
		c-0.06,0.401-0.119,0.8-0.206,1.193c-0.067,0.312-0.158,0.612-0.243,0.921c-0.067,0.243-0.125,0.489-0.201,0.728
		c-0.112,0.343-0.244,0.676-0.374,1.012c-0.078,0.197-0.147,0.401-0.232,0.597c-0.136,0.315-0.295,0.624-0.45,0.933
		c-0.105,0.21-0.204,0.423-0.315,0.628c-0.146,0.264-0.31,0.515-0.467,0.769c-0.15,0.241-0.298,0.488-0.455,0.721
		c-0.138,0.198-0.288,0.385-0.434,0.579c-0.207,0.274-0.408,0.552-0.633,0.813c-0.12,0.145-0.253,0.276-0.377,0.413
		c-0.264,0.293-0.528,0.584-0.811,0.856c-0.112,0.112-0.234,0.214-0.354,0.32c-0.307,0.279-0.61,0.558-0.935,0.813
		c-0.146,0.116-0.302,0.22-0.448,0.331c-0.308,0.229-0.612,0.458-0.936,0.671c-0.259,0.168-0.53,0.316-0.8,0.474
		c-0.225,0.131-0.445,0.271-0.676,0.395c-0.517,0.269-1.048,0.519-1.598,0.739c-1.132,0.456-2.282,0.787-3.437,0.999
		c-1.156,0.213-2.351,0.312-3.573,0.288c-0.598-0.012-1.188-0.058-1.771-0.124c-0.203-0.024-0.403-0.068-0.603-0.101
		c-0.363-0.057-0.73-0.108-1.083-0.188c-0.334-0.073-0.662-0.17-0.991-0.265c-0.219-0.062-0.441-0.112-0.656-0.183
		c-0.361-0.115-0.709-0.255-1.061-0.394c-0.183-0.072-0.37-0.136-0.55-0.213c-0.33-0.145-0.649-0.31-0.971-0.472
		c-0.198-0.099-0.398-0.19-0.59-0.297c-0.273-0.153-0.536-0.322-0.8-0.487c-0.231-0.145-0.466-0.282-0.691-0.438
		c-0.209-0.144-0.406-0.302-0.606-0.455c-0.264-0.2-0.532-0.396-0.785-0.609c-0.153-0.129-0.297-0.271-0.446-0.405
		c-0.279-0.257-0.56-0.51-0.824-0.78c-0.124-0.127-0.239-0.264-0.361-0.398c-0.264-0.29-0.532-0.582-0.777-0.888
		c-0.133-0.168-0.253-0.345-0.378-0.516c-0.213-0.285-0.426-0.567-0.622-0.865c-0.196-0.302-0.372-0.62-0.552-0.938
		c-0.104-0.181-0.217-0.354-0.313-0.539c-0.271-0.52-0.522-1.057-0.745-1.608c-0.457-1.133-0.789-2.285-1.001-3.441
		c-0.21-1.152-0.313-2.346-0.287-3.562c0.012-0.597,0.057-1.185,0.124-1.765c0.026-0.224,0.074-0.442,0.109-0.664
		c0.054-0.344,0.104-0.689,0.176-1.027c0.077-0.348,0.176-0.688,0.272-1.029c0.059-0.207,0.106-0.417,0.17-0.619
		c0.12-0.372,0.264-0.734,0.408-1.097c0.068-0.17,0.125-0.344,0.198-0.512c0.149-0.341,0.317-0.673,0.486-1.006
		c0.095-0.185,0.18-0.373,0.279-0.554c0.161-0.286,0.335-0.561,0.51-0.839c0.136-0.217,0.264-0.438,0.41-0.649
		c0.155-0.224,0.324-0.436,0.489-0.652c0.189-0.248,0.373-0.5,0.575-0.739c0.143-0.169,0.3-0.329,0.449-0.494
		c0.241-0.264,0.48-0.528,0.737-0.777c0.144-0.141,0.301-0.27,0.451-0.407c0.272-0.249,0.548-0.499,0.838-0.73
		c0.185-0.149,0.387-0.286,0.581-0.428c0.264-0.193,0.524-0.393,0.797-0.573c0.327-0.213,0.67-0.408,1.014-0.601
		c0.157-0.088,0.306-0.187,0.464-0.27c0.521-0.272,1.059-0.523,1.615-0.748c1.132-0.457,2.284-0.787,3.439-1
		c1.154-0.211,2.345-0.311,3.563-0.287c0.598,0.012,1.19,0.055,1.773,0.125c0.191,0.023,0.38,0.065,0.569,0.094
		c0.376,0.057,0.753,0.113,1.123,0.193c0.322,0.072,0.642,0.166,0.961,0.255c0.234,0.063,0.466,0.118,0.69,0.191
		c0.355,0.114,0.696,0.25,1.043,0.385c0.188,0.074,0.381,0.14,0.565,0.22c0.326,0.142,0.644,0.305,0.96,0.464
		c0.2,0.101,0.403,0.194,0.601,0.302c0.271,0.151,0.535,0.322,0.8,0.486c0.229,0.145,0.463,0.282,0.686,0.435
		c0.217,0.147,0.417,0.311,0.626,0.467c0.259,0.194,0.517,0.385,0.763,0.593c0.168,0.141,0.319,0.293,0.48,0.439
		c0.269,0.243,0.534,0.484,0.787,0.742c0.145,0.146,0.271,0.304,0.409,0.456c0.247,0.271,0.495,0.542,0.725,0.828
		c0.158,0.198,0.306,0.412,0.456,0.619c0.185,0.25,0.373,0.499,0.544,0.759c0.237,0.363,0.457,0.745,0.669,1.129
		c0.065,0.116,0.139,0.225,0.199,0.343c0.273,0.525,0.527,1.066,0.752,1.627c0.456,1.135,0.789,2.289,1.002,3.447
		c0.21,1.153,0.31,2.341,0.283,3.556c-0.012,0.602-0.055,1.196-0.123,1.78C42.163,26.79,42.127,26.953,42.103,27.119z"/>
</g>
<g>
</g>
<g>
</g>
<g>
</g>
<g>
</g>
<g>
</g>
<g>
</g>
<g>
</g>
<g>
</g>
<g>
</g>
<g>
</g>
<g>
</g>
<g>
</g>
<g>
</g>
<g>
</g>
<g>
</g>
</svg>
